# xmcd
#
# Track frame offsets:
#   150
#   10950
#   24825
#   53400
#   66225
#   81600
#   90450
#   99000
#   113625
#   123525
#   139350
#   152325
#
# Disc length: 2228 seconds
#
# Revision: 0
# Processed by: cddbd v1.5.2PL0 Copyright (c) Steve Scherf et al.
# Submitted via: uFREEDB ActiveX Control 1.5
#
DISCID=8b08b20c
DTITLE=Shakey Jake - Good Times
DYEAR=1900
DGENRE=Blues
TTITLE0=jake1
TTITLE1=cjake2
TTITLE2=fjake3
TTITLE3=ijake4
TTITLE4=mjake5
TTITLE5=wjake6
TTITLE6=yjake7
TTITLE7=08jake
TTITLE8=tjake
TTITLE9=ujake
TTITLE10=ajake
TTITLE11=ljKE
EXTD=
EXTT0=
EXTT1=
EXTT2=
EXTT3=
EXTT4=
EXTT5=
EXTT6=
EXTT7=
EXTT8=
EXTT9=
EXTT10=
EXTT11=
PLAYORDER=
